<!-- <?xml version="1.0" encoding="utf-8"?> -->
<!-- Generator: Adobe Illustrator 21.1.0, SVG Export Plug-In . SVG Version: 6.00 Build 0)  -->
<!-- <!DOCTYPE svg PUBLIC "-//W3C//DTD SVG 1.1//EN" "http://www.w3.org/Graphics/SVG/1.1/DTD/svg11.dtd"> -->
<svg version="1.1" id="Layer_1" xmlns:svg="http://www.w3.org/2000/svg"
	 xmlns="http://www.w3.org/2000/svg" xmlns:xlink="http://www.w3.org/1999/xlink" x="0px" y="0px" width="38px" height="38px"
	 viewBox="0 0 640 640" style="enable-background:new 0 0 640 640;" xml:space="preserve">
<style type="text/css">
	.st0{fill:#F4D03F;}
	.st1{fill:#2C3E50;}
	.st2{fill:#FFFFFF;}
	.st3{fill:#211D1D;}
</style>
<path id="path342" class="st0" d="M252.9,599.4c14.9,3.7,42.6,4.7,70.3,4.7c27.6,0,55.3-1,70.2-4.6c11.6-2.7,17.2-13.4,16.7-28.8
	V116.7c0.2-20.5,0.2-39.9-1.2-48.9c-3.2-20-9-33.9-18.5-37c-17.5-5.9-42.4-8.6-67.3-8.6c-24.9,0-49.8,2.7-67.4,8.6
	c-9.5,3.1-15.2,17.1-18.5,37.1c-1.4,9-1.4,28.4-1.2,48.9v453.9C235.7,586,241.2,596.6,252.9,599.4"/>
<path class="st1" d="M407.6,143.7l-3.5,66.4c-0.4,8.4-2.4,13.3-4.2,13.7l-5.5,1.4c-1.1,0.3-2-3.8-2-9.9v-12.8
	c0-13.9,0.5-25.3,1.8-33.5l4-26.4c0.9-5.8,2.1-9.8,3.5-9.8l4.6,0.1C407.2,132.8,407.8,138.8,407.6,143.7z"/>
<path class="st1" d="M410.9,127.4c0,0-0.1,0-0.2,0.1C410.8,127.4,410.8,127.4,410.9,127.4C410.9,127.4,410.9,127.4,410.9,127.4z"/>
<path class="st1" d="M426.3,136.3c0,1.3-1.1,2.7-2.4,2.4l-14.4-3.7c-1.3-0.3-2.4-1.1-2.4-2.4c0-0.2,0-0.3,0-0.5c0,0.1,0,0.1,0,0.2
	c-1.8,0.4-4.3-0.2-4.5-1.5c-0.2-1-0.6-2-0.3-4.2c0.1-2.6,5.8-1.2,8.6,0.6c0,0-0.1,0.1-0.1,0.1c0,0,0.1,0,0.2-0.1c0,0,0,0,0,0
	c2.1-1.2,3.7-0.2,6.5,0.6c3.6,1,3,0.3,6.5,2.7C426,132.1,426.3,133.7,426.3,136.3z"/>
<path class="st1" d="M410.9,127.4c0,0-0.1,0-0.2,0.1C410.8,127.4,410.8,127.4,410.9,127.4C410.9,127.4,410.9,127.4,410.9,127.4z"/>
<path id="path354" class="st2" d="M404.7,220V217c0-2,0.3-3.7,0.8-3.7h2.7c0.4,0,0.8,1.6,0.8,3.7v2.9c0,2-0.3,3.7-0.8,3.7h-2.7
	C405.1,223.6,404.7,222,404.7,220L404.7,220z"/>
<path class="st1" d="M398.8,120.5C398.8,120.5,398.8,120.5,398.8,120.5c-1.1,12.8-5.7,27-8,45.6h0.1c-0.8,4.8-0.9,33.4-1,64.4
	c0,0,0,0,0,0s0,0,0,0l-2.2,0.1v-0.1c0-39.2-0.2-59.6,1-63.6c-22.2-2.8-43.8-5.1-65.5-5.1c-21.6,0-43.2,2.2-65.5,5l1.1,8.5
	c-0.8,0-1.5-0.2-2.2-0.5l-1-8.7h0c-2.2-18.7-6.9-32.9-8-45.7c0,0,0,0,0,0c-0.3-3.2-0.3-6.3,0-9.4c0.4-4.3,1.7-7.3,3.5-9.4
	c0,0,0,0,0,0c2.7-3.2,6.6-4.5,10.7-5.7c20.7-5.8,40.9-7.9,61.3-7.9c20.5,0,40.7,2.5,61.4,8c4.1,1.1,8,2.4,10.7,5.6c0,0,0,0,0,0
	c1.8,2.1,3.1,5.1,3.5,9.5C399.1,114.1,399.1,117.3,398.8,120.5z"/>
<path class="st2" d="M403,58.2c0,0.5,0,1-0.1,1.5c-0.8,4.4-5.4,6.7-11.6,5.9c0,0,0,0,0,0c-0.3,0-0.7-0.1-1-0.2
	c-8.1-1.4-18.1-16.2-22.2-25.9v0c-0.2-0.5-0.4-1-0.6-1.5c0-0.1-0.1-0.2-0.1-0.3l0,0c-0.3-0.7-0.5-1.4-0.7-2.1
	c17.8-0.1,27.5,7.8,31,11.7c3.5,4,5.1,7.5,5.3,10.4C403,57.9,403,58.1,403,58.2z"/>
<path id="path368" class="st1" d="M266.4,559.9c-3,0-5.4,0.7-5.4,1.5v7c0,0.8,3.4,4.1,6.3,4.2c23.1,1.7,39.5,2.8,56,2.8
	c16.4,0,32.9-1.1,56-2.8c2.9-0.1,6.2-3.4,6.2-4.2v-7c0-0.7-2.4-1.4-5.4-1.4c-19,1.2-37.8,2.2-56.9,2.2
	C304.1,562.1,285.4,561.6,266.4,559.9L266.4,559.9z"/>
<path id="path372" class="st1" d="M252.9,601.5c-11.6-2.3-17.2-11.2-16.7-24.1v-1.8l17.8-1.2l-1.1,22.6c16,3.6,43,5.1,70.3,5.1
	c26.7,0,53.7-1.3,70.4-5l-1.1-22.6l17.8,1.2v1.8c0.5,12.8-5.1,21.8-16.7,24.1c-14.8,3-42.5,3.8-70.2,3.8
	C300.1,605.3,275.3,606,252.9,601.5L252.9,601.5z"/>
<path id="path374" class="st1" d="M409,60.2c-3.2-16.6-8.9-28.3-18.5-30.8c-17.6-5-42.4-7.2-67.4-7.2h-1.9v0
	c-24.2,0.1-48.1,2.4-65.2,7.2c-9.5,2.6-15.2,14.2-18.5,30.8c-0.3,1.5-0.5,3.3-0.7,5.4l6.7-5.8l0.1,0c-0.3-1.7-0.1-3.6,0.8-5.8
	c0,0,0-0.1,0-0.1c0.8-2,2.2-4.3,4.3-6.7c3.5-3.8,12.9-11.6,30.3-11.7V35c12.3-4,26.9-6,42.7-5.8l3.4,0c15.8-0.2,29.9,1.7,42.1,5.8
	v0.5c17.5,0.1,26.8,7.8,30.3,11.7c3.5,4.1,5.1,7.6,5.3,10.5c0,0.2,0,0.3,0,0.5c0,0.5,0,1-0.1,1.5l0,0l6.8,5.8
	C409.4,63.4,409.2,61.6,409,60.2z M279,38.1L279,38.1l0.1-0.4L279,38.1z M367.3,37.7L367.3,37.7l0,0.3h0.1L367.3,37.7z"/>
<path class="st1" d="M254,202.4v12.8c0,6.1-0.8,10.2-1.9,9.9l-5.5-1.4c-1.9-0.5-3.8-5.3-4.2-13.8l-3.5-66.4
	c-0.3-4.9,0.4-10.9,1.3-10.9l4.6-0.1c1.5,0,2.7,4,3.5,9.8l4,26.4C253.5,177.1,254,188.5,254,202.4z"/>
<path class="st1" d="M243.9,130.9c-0.2,1.3-2.8,1.9-4.5,1.5c0-0.1,0-0.1,0-0.2c0,0.1,0,0.3,0,0.4c0,1.3-1.1,2.1-2.4,2.4l-14.4,3.7
	c-1.3,0.3-2.4-1.1-2.4-2.4c0-2.6,0.3-4.2,2.4-5.7c3.5-2.4,2.9-1.7,6.5-2.7c2.8-0.8,4.4-1.8,6.5-0.6c0,0,0,0,0,0
	c0.1,0,0.1,0.1,0.2,0.1c-0.1,0-0.1-0.1-0.2-0.1c2.8-1.9,8.5-3.2,8.6-0.7C244.4,128.9,244.1,129.9,243.9,130.9z"/>
<path class="st1" d="M235.6,127.3c0.1,0,0.1,0.1,0.2,0.1C235.7,127.4,235.7,127.3,235.6,127.3C235.6,127.3,235.6,127.3,235.6,127.3z
	"/>
<path class="st1" d="M235.6,127.3c0.1,0,0.1,0.1,0.2,0.1C235.7,127.4,235.7,127.3,235.6,127.3C235.6,127.3,235.6,127.3,235.6,127.3z
	"/>
<path id="path386" class="st2" d="M241.7,219.9v-3c0-2-0.3-3.7-0.8-3.7h-2.7c-0.4,0-0.7,1.6-0.7,3.7v3c0,2,0.3,3.7,0.7,3.7h2.7
	C241.4,223.6,241.7,222,241.7,219.9L241.7,219.9z"/>
<path class="st2" d="M279.7,35.6c-2.4,9-14.2,28.2-23.5,29.9c-0.3,0.1-0.7,0.1-1,0.2h0c-6.1,0.8-10.7-1.5-11.6-5.8
	c-0.3-1.7-0.1-3.6,0.8-5.8c0,0,0-0.1,0-0.1c0.9-2,2.3-4.2,4.3-6.6C252.2,43.4,261.9,35.5,279.7,35.6z"/>
<path class="st2" d="M329,32.5c0,0.5-0.8,1-1.9,1.3c0,0,0,0-0.1,0c-0.1,0-0.2,0-0.3,0c0,0-0.1,0-0.1,0c-0.1,0-0.2,0.1-0.3,0.1
	c-0.9,0.2-1.9,0.3-3,0.3c-0.9,0-1.8-0.1-2.6-0.2c-0.3,0-0.6-0.1-0.8-0.2c0,0-0.1,0-0.1,0h0c0,0,0,0-0.1,0c-1.2-0.3-2.1-0.8-2.1-1.3
	c0-0.9,2.6-1.7,5.7-1.7C326.5,30.9,329,31.6,329,32.5z"/>
<path class="st3" d="M391.2,65.4c0,0.1,0,0.2,0.1,0.3c0,0,0,0,0,0C391.2,65.5,391.2,65.5,391.2,65.4L391.2,65.4z"/>
<path class="st3" d="M395.3,101.6c0,1.7-0.1,3.1-0.3,4.2l0,0C395.2,104.7,395.3,103.3,395.3,101.6
	C395.3,101.6,395.3,101.6,395.3,101.6z"/>
<path class="st3" d="M389.9,230.5C389.9,230.5,389.9,230.5,389.9,230.5l-2.2,0v0H389.9z"/>
<path class="st3" d="M398.8,120.5C398.8,120.5,398.8,120.5,398.8,120.5l-0.5,0v0L398.8,120.5z"/>
<path class="st3" d="M251.1,101.6c0,1.7,0.1,3.1,0.3,4.1l0,0C251.2,104.7,251.1,103.3,251.1,101.6
	C251.1,101.6,251.1,101.6,251.1,101.6z"/>
<path class="st3" d="M255.2,65.4c0,0.1,0,0.2,0,0.3h0C255.1,65.5,255.2,65.5,255.2,65.4L255.2,65.4z"/>
<rect x="256.5" y="352.2" class="st3" width="0" height="0"/>
<path class="st3" d="M248.2,120.4L248.2,120.4l-0.6,0.1c0,0,0,0,0,0L248.2,120.4z"/>
<path class="st1" d="M363.9,38.4c-0.9-0.2-1.7-0.3-2.6-0.5c-0.1,0-0.3,0-0.4-0.1c-10.6-1.9-22.8-3.8-34.5-3.9c0.1,0,0.7-0.1,0.7-0.1
	c1.2-0.3,1.9-0.8,1.9-1.3c0-0.9-2.5-1.7-5.7-1.7c-3.1,0-5.7,0.8-5.7,1.7c0,0.5,0.8,1,2.1,1.3c0.2,0,0.7,0.2,1,0.2
	c-8.1,0.2-16.3,0.7-24.4,1.9c-0.1,0-0.2,0-0.3,0c-0.1,0-0.2,0-0.3,0c-4.3,0.6-8.6,1.4-12.8,2.4c0.4-1.6,1-2.5,2.5-3.3
	c1-0.6,2.6-1.5,5.3-1.6c7.9-1.5,20.3-2.8,32.6-2.8c12.4,0,24.7,1,32.7,2.8c2.8,0.1,4.4,1,5.3,1.6C362.9,36,363.5,36.8,363.9,38.4z"
	/>
<path class="st1" d="M363.8,38.5c-1-0.2-1.9-0.5-2.9-0.7c0.1,0,0.3,0.1,0.4,0.1C362.2,38.1,363,38.3,363.8,38.5z"/>
<rect x="256.5" y="352.2" class="st1" width="0" height="0"/>
<path class="st1" d="M256.5,242.4C256.5,242.4,256.5,242.4,256.5,242.4c-0.2-0.2-0.3-0.4-0.5-0.5c-1.5-1.5-3.5-2.4-5.8-2.4
	c-4.5,0-8.1,3.7-8.1,8.2V542c0,2.2,0.9,4.3,2.4,5.8c1.5,1.5,3.5,2.4,5.8,2.4c4.5,0,8.1-3.7,8.1-8.2V247.6
	C258.4,245.7,257.7,243.8,256.5,242.4z M256.6,352.2L256.6,352.2L256.6,352.2L256.6,352.2L256.6,352.2z"/>
<path class="st1" d="M403.3,242.4C403.3,242.4,403.3,242.4,403.3,242.4c-0.2-0.2-0.3-0.4-0.5-0.5c-1.5-1.5-3.5-2.4-5.8-2.4
	c-4.5,0-8.1,3.7-8.1,8.2V542c0,2.2,0.9,4.3,2.4,5.8c1.5,1.5,3.5,2.4,5.8,2.4c4.5,0,8.1-3.7,8.1-8.2V247.6
	C405.2,245.7,404.5,243.8,403.3,242.4z M403.3,352.2L403.3,352.2L403.3,352.2L403.3,352.2L403.3,352.2z"/>
</svg>
