<svg width="29px" height="29px" viewBox="0 0 29 29" version="1.1" xmlns="http://www.w3.org/2000/svg" xmlns:xlink="http://www.w3.org/1999/xlink">
    <!-- Generator: Sketch 47.1 (45422) - http://www.bohemiancoding.com/sketch -->
    <desc>Created with Sketch.</desc>
    <defs></defs>
    <g id="Page-1" stroke="none" stroke-width="1" fill="none" fill-rule="evenodd">
        <path d="M17.3904745,18.1300319 L17.3904745,14.5047506 L11.5900244,14.5047506 L11.5900244,18.8550881 L8.68979932,18.8550881 L8.68979932,13.054638 C8.68979932,12.2570761 9.34234996,11.6045255 10.1399119,11.6045255 L17.3904745,11.6045255 L17.3904745,7.97924419 L22.4658683,13.054638 L17.3904745,18.1300319 Z M28.5708421,13.4751707 L15.5198293,0.424157914 C14.9542854,-0.141385971 14.0407146,-0.141385971 13.4751707,0.424157914 L0.424157914,13.4751707 C-0.141385971,14.0407146 -0.141385971,14.9542854 0.424157914,15.5198293 L13.4751707,28.5708421 C14.0407146,29.136386 14.9542854,29.136386 15.5198293,28.5708421 L28.5708421,15.5198293 C29.136386,14.9687866 29.136386,14.0552157 28.5708421,13.4751707 L28.5708421,13.4751707 Z" id="directions" fill="#61A3FE"></path>
    </g>
</svg>
