<svg width="27px" height="32px" viewBox="0 0 27 32" version="1.1" xmlns="http://www.w3.org/2000/svg" xmlns:xlink="http://www.w3.org/1999/xlink">
    <!-- Generator: Sketch 47.1 (45422) - http://www.bohemiancoding.com/sketch -->
    <desc>Created with Sketch.</desc>
    <defs>
        <path d="M12.5,0 C5.59714093,0 0,5.34779491 0,11.9442452 C0,21.872535 12.5,30 12.5,30 C12.5,30 25,21.2746504 25,11.9433489 C25,5.34689853 19.4028591,0 12.5,0 Z M12.5008657,17 C9.46214387,17 7,14.7613351 7,12.0000001 C7,9.23866515 9.46214387,7.00000021 12.5008657,7.00000021 C15.5378561,6.99921305 18,9.2394523 18,12.0007873 C17.9991343,14.7621222 15.5378561,17 12.5008657,17 Z" id="path-1"></path>
        <filter x="-8.0%" y="-3.3%" width="116.0%" height="113.3%" filterUnits="objectBoundingBox" id="filter-2">
            <feOffset dx="0" dy="1" in="SourceAlpha" result="shadowOffsetOuter1"></feOffset>
            <feGaussianBlur stdDeviation="0.5" in="shadowOffsetOuter1" result="shadowBlurOuter1"></feGaussianBlur>
            <feColorMatrix values="0 0 0 0 0   0 0 0 0 0   0 0 0 0 0  0 0 0 0.33 0" type="matrix" in="shadowBlurOuter1"></feColorMatrix>
        </filter>
    </defs>
    <g id="Page-1" stroke="none" stroke-width="1" fill="none" fill-rule="evenodd">
        <g id="Directions" transform="translate(-58.000000, -315.000000)" fill-rule="nonzero">
            <g id="marker" transform="translate(59.000000, 315.000000)">
                <g id="Shape">
                    <use fill="black" fill-opacity="1" filter="url(#filter-2)" xlink:href="#path-1"></use>
                    <use fill="#FF6477" fill-rule="evenodd" xlink:href="#path-1"></use>
                </g>
            </g>
        </g>
    </g>
</svg>
