<svg width="34px" height="41px" viewBox="0 0 34 41" version="1.1" xmlns="http://www.w3.org/2000/svg" xmlns:xlink="http://www.w3.org/1999/xlink">
    <!-- Generator: Sketch 47.1 (45422) - http://www.bohemiancoding.com/sketch -->
    <desc>Created with Sketch.</desc>
    <defs>
        <path d="M16,0 C7.16434039,0 0,6.95213338 0,15.5275188 C0,28.4342954 16,39 16,39 C16,39 32,27.6570455 32,15.5263535 C32,6.95096809 24.8356596,0 16,0 Z M16,22.9282897 C11.7856821,22.9282897 8.37100405,19.6141986 8.37100405,15.5263535 C8.37100405,11.4385084 11.7856821,8.12441735 16,8.12441735 C20.2119166,8.12325206 23.6265946,11.4396737 23.6265946,15.5275188 C23.625394,19.6153639 20.2119166,22.9282897 16,22.9282897 Z" id="path-1"></path>
        <filter x="-6.2%" y="-2.6%" width="112.5%" height="110.3%" filterUnits="objectBoundingBox" id="filter-2">
            <feOffset dx="0" dy="1" in="SourceAlpha" result="shadowOffsetOuter1"></feOffset>
            <feGaussianBlur stdDeviation="0.5" in="shadowOffsetOuter1" result="shadowBlurOuter1"></feGaussianBlur>
            <feColorMatrix values="0 0 0 0 0   0 0 0 0 0   0 0 0 0 0  0 0 0 0.33 0" type="matrix" in="shadowBlurOuter1"></feColorMatrix>
        </filter>
    </defs>
    <g id="Page-1" stroke="none" stroke-width="1" fill="none" fill-rule="evenodd">
        <g id="Zoom" transform="translate(-171.000000, -294.000000)">
            <g id="Group" transform="translate(172.000000, 294.000000)">
                <circle id="Oval-2" fill="#EAEAEA" cx="15.5" cy="16.5" r="9.5"></circle>
                <g id="Shape" fill-rule="nonzero">
                    <use fill="black" fill-opacity="1" filter="url(#filter-2)" xlink:href="#path-1"></use>
                    <use fill="#61A3FE" fill-rule="evenodd" xlink:href="#path-1"></use>
                </g>
            </g>
        </g>
    </g>
</svg>
