<svg width="21px" height="21px" viewBox="0 0 21 21" version="1.1" xmlns="http://www.w3.org/2000/svg" xmlns:xlink="http://www.w3.org/1999/xlink">
    <!-- Generator: Sketch 47.1 (45422) - http://www.bohemiancoding.com/sketch -->
    <desc>Created with Sketch.</desc>
    <defs></defs>
    <g id="Page-1" stroke="none" stroke-width="1" fill="none" fill-rule="evenodd">
        <g id="Selection" transform="translate(-281.000000, -632.000000)" fill="#C7C7C7">
            <g id="Group" transform="translate(7.000000, 615.000000)">
                <path d="M281.76087,29.7826087 C278.982174,29.7826087 276.73913,27.5395652 276.73913,24.7608696 C276.73913,21.9821739 278.982174,19.7391304 281.76087,19.7391304 C284.539565,19.7391304 286.782609,21.9821739 286.782609,24.7608696 C286.782609,27.5395652 284.539565,29.7826087 281.76087,29.7826087 L281.76087,29.7826087 Z M289.008576,30.2075472 L288.060034,30.2075472 L287.723842,29.8833619 C288.900515,28.5145798 289.608919,26.7375643 289.608919,24.8044597 C289.608919,20.4939966 286.114923,17 281.80446,17 C277.493997,17 274,20.4939966 274,24.8044597 C274,29.1149228 277.493997,32.6089194 281.80446,32.6089194 C283.737564,32.6089194 285.51458,31.9005146 286.883362,30.7238422 L287.207547,31.0600343 L287.207547,32.0085763 L293.210978,38 L295,36.2109777 L289.008576,30.2075472 Z" id="search"></path>
            </g>
        </g>
    </g>
</svg>
